Coordinates
version=1
nRows=38
nColumns=12
inDegrees=yes

Units are S.I. units (second, meters, Newtons, ...)
Angles are in degrees

endheader
time	SC_y	SC_z	SC_x	AC_y	AC_z	AC_x	GH_y	GH_z	GH_yy	EL_x	PS_y
       0.0              -58.97          28.16          81.49          37.21          9.625          2.667         -19.29          48.49         -75.58          134.0          99.08
   0.04577              -58.97          28.15          81.49          37.21          9.622          2.669         -19.28          48.49         -75.59          134.0          99.09
   0.09154              -58.97          28.15          81.49          37.21          9.619          2.671         -19.26          48.49         -75.59          134.0          99.09
    0.1373              -58.97          28.14          81.49          37.21          9.615          2.673         -19.23          48.49          -75.6          134.0           99.1
    0.1831              -58.96          28.14          81.49          37.21          9.612          2.675         -19.21          48.49          -75.6          134.0          99.11
    0.2289              -58.96          28.13          81.49          37.21          9.608          2.678         -19.19          48.49         -75.61          133.9          99.11
    0.2746              -58.96          28.13          81.49          37.21          9.604          2.681         -19.16          48.49         -75.61          133.9          99.12
    0.3204              -58.96          28.12          81.49          37.21          9.599          2.684         -19.14           48.5         -75.62          133.9          99.13
    0.3662              -58.95          28.12          81.48          37.21          9.594          2.687         -19.11           48.5         -75.62          133.9          99.14
    0.4119              -58.95          28.11          81.48          37.21          9.589           2.69         -19.08           48.5         -75.63          133.9          99.14
    0.4577              -58.95           28.1          81.48          37.21          9.583          2.694         -19.04           48.5         -75.63          133.8          99.15
    0.5035              -58.95          28.09          81.48          37.21          9.577          2.698         -19.01           48.5         -75.64          133.8          99.16
    0.5493              -58.94          28.08          81.48          37.21          9.571          2.702         -18.97           48.5         -75.65          133.8          99.17
     0.595              -58.94          28.07          81.48          37.21          9.564          2.707         -18.93           48.5         -75.66          133.8          99.19
    0.6408              -58.93          28.06          81.48          37.21          9.557          2.712         -18.88           48.5         -75.67          133.7           99.2
    0.6866              -58.93          28.05          81.48          37.21          9.548          2.717         -18.83           48.5         -75.68          133.7          99.21
    0.7323              -58.92          28.04          81.48           37.2          9.539          2.723         -18.78           48.5         -75.69          133.7          99.23
    0.7781              -58.92          28.03          81.47           37.2           9.53          2.729         -18.72           48.5          -75.7          133.6          99.24
    0.8239              -58.91          28.01          81.47           37.2          9.519          2.736         -18.66           48.5         -75.71          133.6          99.26
    0.8697              -58.91           28.0          81.47           37.2          9.508          2.744         -18.59          48.51         -75.73          133.5          99.28
    0.9154               -58.9          27.98          81.47           37.2          9.495          2.752         -18.51          48.51         -75.74          133.5           99.3
    0.9612              -58.89          27.96          81.47           37.2          9.481          2.761         -18.43          48.51         -75.76          133.4          99.33
     1.007              -58.88          27.94          81.46           37.2          9.466          2.772         -18.33          48.51         -75.78          133.3          99.35
     1.053              -58.87          27.91          81.46           37.2          9.448          2.783         -18.23          48.51          -75.8          133.3          99.38
     1.099              -58.86          27.89          81.46           37.2          9.429          2.795         -18.12          48.51         -75.82          133.2          99.41
     1.144              -58.85          27.86          81.45           37.2          9.408          2.809         -17.99          48.52         -75.84          133.1          99.45
      1.19              -58.84          27.83          81.45           37.2          9.384          2.825         -17.85          48.52         -75.87          133.0          99.49
     1.236              -58.82          27.79          81.44           37.2          9.358          2.843         -17.68          48.52          -75.9          132.9          99.53
     1.282              -58.81          27.75          81.44           37.2          9.327          2.863          -17.5          48.53         -75.94          132.7          99.58
     1.327              -58.79           27.7          81.43           37.2          9.293          2.885          -17.3          48.53         -75.98          132.6          99.64
     1.373              -58.76          27.65          81.43           37.2          9.254          2.911         -17.06          48.53         -76.03          132.4          99.71
     1.419              -58.74          27.58          81.42           37.2          9.209          2.941         -16.79          48.54         -76.08          132.2          99.78
     1.465              -58.71          27.51          81.41           37.2          9.157          2.975         -16.48          48.54         -76.14          132.0          99.87
      1.51              -58.68          27.43           81.4           37.2          9.097          3.014         -16.11          48.55         -76.22          131.7          99.97
     1.556              -58.64          27.33          81.39           37.2          9.026          3.061         -15.69          48.56          -76.3          131.4          100.1
     1.602              -58.59          27.22          81.37          37.19          8.943          3.116         -15.19          48.57          -76.4          131.1          100.2
     1.648              -58.54          27.08          81.35          37.19          8.844          3.181         -14.59          48.58         -76.52          130.6          100.4
     1.694              -58.47          26.92          81.33          37.19          8.726          3.259         -13.88          48.59         -76.66          130.1          100.6
